<svg width="346" height="65" viewBox="0 0 346 65" fill="none" xmlns="http://www.w3.org/2000/svg">
<path d="M339.724 49.0155C342.216 49.0155 342.556 37.5881 342.414 31.8744H338.342C338.318 28.831 338.15 25.9732 337.6 23.8909C335.618 16.3771 332.928 33.7529 331.796 28.8219C330.663 23.8909 331.796 5.34105 328.964 12.8549C327.657 16.3236 327.828 24.2958 328.057 31.8744H319.948C319.815 25.524 319.716 19.4093 318.629 21.0732C317.904 22.1822 317.443 26.7465 316.943 31.8744H310.352C309.906 24.8464 309.437 17.9756 308.152 16.377C305.32 12.8549 306.453 23.8909 304.188 23.8909C301.923 23.8909 300.507 0.175246 298.383 3.69738C296.259 7.21951 296.543 25.7694 294.985 28.8219C294.719 29.3428 294.553 30.431 294.429 31.8744H279.144C278.974 27.6792 279.007 23.8909 277.996 23.8909C275.73 23.8909 273.04 -8.98229 267.519 3.69738C264.789 9.96636 263.547 22.3195 262.784 31.8744H260.218C260.225 24.1709 260.774 18.4321 258.741 23.8909C255.768 31.8744 253.927 3.93218 252.936 16.377C252.55 21.2217 252.379 26.8493 252.122 31.8744H246.482C246.196 27.3489 245.851 22.9937 244.866 21.0732C242.459 16.377 239.062 20.6037 239.062 8.39369C239.062 -3.81636 235.947 4.63663 235.239 12.8549C234.892 16.8832 235.327 25.0295 235.345 31.8744H226.47C225.479 20.4077 224.549 8.20221 223.346 12.8549C222.234 17.1577 221.627 25.1938 220.996 31.8744H217.479C217.31 25.7304 217.178 19.5886 215.984 21.0732C215.173 22.0819 214.816 26.5514 214.581 31.8744H210.952C210.737 23.7089 210.364 16.377 209.047 16.377C206.074 16.377 207.065 31.8744 204.941 31.8744C202.817 31.8744 204.375 17.3162 202.11 12.8549C199.844 8.39369 197.154 -0.998934 195.172 3.69738C194 6.47449 194.957 20.1719 194.793 31.8744H188.225C188.139 27.9315 187.921 24.0467 187.244 21.0732C184.837 10.507 182.713 22.0125 182.713 12.8549C182.713 3.69738 179.74 4.63663 179.174 12.8549C178.91 16.6847 178.984 24.6958 178.924 31.8744H175.493C175.446 35.5531 175.776 43.474 177.475 45.7283C178.609 47.233 178.855 40.1003 178.924 31.8744H188.225C188.445 41.9425 187.807 52.39 191.774 49.0155C194.031 47.0963 194.679 39.9617 194.793 31.8744H204.941H210.952C211.223 42.1349 211.246 53.7116 212.586 53.7116C214.132 53.7116 214.16 41.4204 214.581 31.8744H217.479C217.63 37.3916 217.811 42.9104 218.816 42.9104C219.828 42.9104 220.422 37.9536 220.996 31.8744H226.47C227.23 40.6619 228.027 49.0155 229.009 49.0155C231.275 49.0155 228.302 39.3884 232.691 42.9104C234.928 44.7061 235.363 38.9943 235.345 31.8744H246.482C246.897 38.4152 247.189 45.3119 249.114 45.7283C251.102 46.1585 251.718 39.7577 252.122 31.8744H260.218C260.215 35.4373 260.327 39.4204 260.865 42.9104C261.724 48.4901 262.004 41.6453 262.784 31.8744H279.144C279.356 37.0793 279.878 42.9104 283.093 42.9104C288.897 42.9104 283.376 53.0072 289.322 53.7116C294.254 54.2959 293.829 38.8902 294.429 31.8744H310.352C310.889 40.3312 311.393 49.0155 313.249 49.0155C315.309 49.0155 316.172 39.7758 316.943 31.8744H319.948C320.039 36.2781 320.147 40.7951 320.611 42.9104C321.744 48.0762 323.301 28.8219 324.434 35.1617C325.566 41.5016 323.442 49.0155 326.84 49.0155C328.67 49.0155 328.324 40.7126 328.057 31.8744H338.342C338.402 39.8131 337.473 49.0155 339.724 49.0155Z" fill="#368EF3"/>
<path d="M60.8066 49.0155C59.0666 49.0155 58.8294 37.5881 58.9282 31.8744H61.772C61.7882 28.831 61.906 25.9732 62.2896 23.8909C63.6736 16.3771 65.552 33.7529 66.3429 28.8219C67.1338 23.8909 66.3429 5.34105 68.3201 12.8549C69.2329 16.3236 69.1133 24.2958 68.9534 31.8744H74.6161C74.7086 25.524 74.778 19.4093 75.5369 21.0732C76.0428 22.1822 76.3648 26.7465 76.7141 31.8744H81.3166C81.6281 24.8464 81.9553 17.9756 82.8527 16.377C84.8299 12.8549 84.039 23.8909 85.6208 23.8909C87.2026 23.8909 88.1912 0.175246 89.6741 3.69738C91.157 7.21951 90.9593 25.7694 92.0467 28.8219C92.2323 29.3428 92.3488 30.431 92.435 31.8744H103.108C103.227 27.6792 103.204 23.8909 103.91 23.8909C105.492 23.8909 107.37 -8.98229 111.226 3.69738C113.132 9.96637 113.999 22.3195 114.532 31.8744H116.324C116.319 24.1709 115.936 18.4321 117.355 23.8909C119.431 31.8744 120.716 3.93218 121.408 16.377C121.678 21.2217 121.797 26.8493 121.977 31.8744H125.915C126.115 27.3489 126.356 22.9937 127.044 21.0732C128.724 16.377 131.097 20.6037 131.097 8.39369C131.097 -3.81637 133.272 4.63663 133.766 12.8549C134.008 16.8832 133.704 25.0295 133.692 31.8744H139.889C140.581 20.4077 141.231 8.20221 142.07 12.8549C142.847 17.1577 143.271 25.1938 143.712 31.8744H146.168C146.285 25.7304 146.378 19.5886 147.211 21.0732C147.777 22.0819 148.027 26.5514 148.191 31.8744H150.725C150.875 23.7089 151.135 16.377 152.055 16.377C154.131 16.377 153.439 31.8744 154.922 31.8744C156.405 31.8744 155.318 17.3162 156.9 12.8549C158.481 8.39369 160.36 -0.998934 161.744 3.69738C162.562 6.47449 161.894 20.1719 162.009 31.8744H166.595C166.655 27.9315 166.807 24.0467 167.28 21.0732C168.961 10.507 170.444 22.0125 170.444 12.8549C170.444 3.69738 172.52 4.63663 172.915 12.8549C173.099 16.6847 173.047 24.6958 173.09 31.8744H175.485C175.518 35.5531 175.288 43.474 174.101 45.7283C173.31 47.233 173.138 40.1003 173.09 31.8744H166.595C166.442 41.9425 166.887 52.3901 164.116 49.0155C162.541 47.0963 162.088 39.9617 162.009 31.8744H154.922H150.725C150.536 42.1349 150.52 53.7116 149.584 53.7116C148.505 53.7116 148.485 41.4204 148.191 31.8744H146.168C146.062 37.3916 145.936 42.9104 145.234 42.9104C144.527 42.9104 144.113 37.9536 143.712 31.8744H139.889C139.358 40.6619 138.802 49.0155 138.116 49.0155C136.534 49.0155 138.61 39.3884 135.546 42.9104C133.983 44.7061 133.68 38.9943 133.692 31.8744H125.915C125.626 38.4152 125.422 45.3119 124.078 45.7283C122.689 46.1585 122.259 39.7577 121.977 31.8744H116.324C116.326 35.4373 116.247 39.4204 115.872 42.9104C115.272 48.4901 115.077 41.6453 114.532 31.8744H103.108C102.961 37.0793 102.595 42.9104 100.351 42.9104C96.2978 42.9104 100.153 53.0072 96.0012 53.7116C92.5575 54.2959 92.8539 38.8902 92.435 31.8744H81.3166C80.9417 40.3312 80.5895 49.0155 79.2937 49.0155C77.8548 49.0155 77.2522 39.7758 76.7141 31.8744H74.6161C74.552 36.2781 74.4768 40.7951 74.1529 42.9104C73.362 48.0762 72.2745 28.8219 71.4836 35.1617C70.6928 41.5016 72.1757 49.0155 69.803 49.0155C68.5257 49.0155 68.7669 40.7126 68.9534 31.8744H61.772C61.7297 39.8131 62.3788 49.0155 60.8066 49.0155Z" fill="#FFCF35"/>
<rect x="55.6345" y="31.416" width="286.805" height="1.96073" fill="#F2F7FC"/>
<circle cx="342.732" cy="32.7239" r="3.26788" fill="#F2F7FC"/>
<rect x="-0.000244141" y="0.0449219" width="64.7041" height="64.7041" rx="32.3521" fill="#F2F7FC"/>
<path d="M22.8745 21.7674C22.8745 20.7956 23.8971 20.1636 24.7662 20.5982L48.64 32.5351C49.6034 33.0168 49.6034 34.3917 48.64 34.8734L24.7662 46.8103C23.8971 47.2448 22.8745 46.6128 22.8745 45.6411V21.7674Z" fill="#001935"/>
</svg>
