<svg width="392" height="326" viewBox="0 0 392 326" fill="none" xmlns="http://www.w3.org/2000/svg">
<path fill-rule="evenodd" clip-rule="evenodd" d="M195.773 358.91L156.218 323.396L155.611 322.854C111.398 283.312 72.9703 248.945 45.8041 216.165C18.2834 182.958 0 148.705 0 109.131C0 43.8142 52.1175 -6.88574 117.295 -6.88574C137.896 -6.88574 156.748 0.991455 172.261 10.881C180.766 16.3031 188.658 22.575 195.773 29.1056C202.887 22.575 210.779 16.3031 219.284 10.881C234.797 0.991454 253.649 -6.88574 274.25 -6.88574C339.428 -6.88574 391.545 43.8143 391.545 109.131C391.545 148.705 373.262 182.958 345.741 216.165C318.575 248.945 280.147 283.312 235.933 322.854L235.327 323.396L195.773 358.91ZM221.06 307.447C310.873 227.123 370.168 173.975 370.168 109.131C370.168 55.9832 327.964 14.5313 274.25 14.5313C251.049 14.5313 228.56 28.1977 210.762 44.3961C205.282 49.3829 200.247 54.6098 195.773 59.7517C191.298 54.6098 186.263 49.383 180.783 44.3961C162.985 28.1977 140.497 14.5313 117.295 14.5313C63.5811 14.5313 21.3775 55.9832 21.3775 109.131C21.3775 173.975 80.6718 227.123 170.485 307.447L195.773 330.151L221.06 307.447Z" fill="#ED4723"/>
<path d="M173.429 228.002C163.626 227.802 153.259 226.25 143.83 223.956C128.919 220.329 112.421 214.218 100.121 204.817C88.6332 196.037 78.1616 183.976 72.0577 170.839C67.146 160.268 61.469 149.351 61.3053 137.399C61.1661 127.236 62.9519 114.239 69.4234 106.002C75.5599 98.1921 85.8138 95.2843 94.4227 101.164C98.2852 103.801 101.919 111.953 98.7237 116.378C96.298 119.737 91.3231 120.444 88.1863 117.83" stroke="#FFCF35" stroke-width="3.40803" stroke-linecap="round" stroke-linejoin="round"/>
<path d="M173.62 228.002C169.83 225.476 163.976 222.073 159.856 220.167C153.595 217.272 148.106 213.883 142.883 209.339C129.517 197.712 116.987 185.675 111.481 168.393C109.717 162.857 108.138 150.674 115.359 147.744C122.295 144.929 125.843 151.022 128.856 156.507C133.167 164.352 135.156 173.194 139.66 180.959C143.271 187.186 145.963 193.608 150.085 199.543C156.818 209.239 162.835 222.089 173.358 227.829" stroke="#FFCF35" stroke-width="3.40803" stroke-linecap="round" stroke-linejoin="round"/>
<path d="M130.216 182.316C125.73 174.866 121.661 167.997 119.044 159.71C118.426 157.752 116.485 148.286 120.808 153.569C126.326 160.313 130.216 171.751 130.216 180.552" stroke="#ED4723" stroke-width="3.40803" stroke-linecap="round" stroke-linejoin="round"/>
<path d="M73.7683 116.46C72.3255 118.354 70.1793 120.607 72.6577 122.569C73.7722 123.451 76.4732 124.243 77.5576 122.863C79.9761 119.785 79.3665 115.135 74.9443 115.872" stroke="#ED4723" stroke-width="3.40803" stroke-linecap="round" stroke-linejoin="round"/>
<path d="M69.8354 129.651C68.8071 130.743 67.9796 131.518 69.3167 132.763C70.3981 133.77 71.3617 133.494 72.0346 132.244C73.0383 130.38 71.5742 129.277 69.8354 129.277" stroke="#ED4723" stroke-width="3.40803" stroke-linecap="round" stroke-linejoin="round"/>
<path d="M71.3296 142.348C71.073 143.173 69.6844 146.001 71.0184 146.601C71.9984 147.042 72.9793 146.695 73.3629 145.709C73.9244 144.265 73.4185 142.884 72.0765 142.348" stroke="#ED4723" stroke-width="3.40803" stroke-linecap="round" stroke-linejoin="round"/>
<path d="M75.064 154.672C75.3514 161.857 79.9151 152.931 75.8109 154.299" stroke="#ED4723" stroke-width="3.40803" stroke-linecap="round" stroke-linejoin="round"/>
<path d="M173.984 82.7398C175.953 78.3604 177.529 73.2888 181.995 70.8078C183.615 69.9077 185.177 68.9393 186.951 68.3806C188.527 67.8846 195.78 67.3214 194.012 70.2137C192.744 72.2887 191.979 74.6492 190.719 76.7314C189.32 79.0453 187.212 80.1955 184.83 81.348C182.06 82.6883 179.104 82.4343 176.122 82.4343" stroke="#FFCF35" stroke-width="3.40803" stroke-linecap="round" stroke-linejoin="round"/>
<path d="M166.04 87.3224C163.543 83.345 162.579 76.7939 163.596 72.2164C164.289 69.0959 165.417 65.0256 168.484 63.4922" stroke="#FFCF35" stroke-width="3.40803" stroke-linecap="round" stroke-linejoin="round"/>
<path d="M168.79 62.8809C171.764 71.2455 170.844 79.243 166.957 87.0166" stroke="#FFCF35" stroke-width="3.40803" stroke-linecap="round" stroke-linejoin="round"/>
<path d="M167.569 91.599C173.916 87.4099 184.296 85.9894 191.094 89.7659" stroke="#FFCF35" stroke-width="3.40803" stroke-linecap="round" stroke-linejoin="round"/>
<path d="M168.179 92.5156C174.248 99.7408 186.173 96.2138 192.009 90.377" stroke="#FFCF35" stroke-width="3.40803" stroke-linecap="round" stroke-linejoin="round"/>
<path d="M160.542 97.7099C154.749 95.6603 151.682 90.4214 151.682 84.403C151.682 83.855 151.337 81.0787 152.293 81.2799C153.926 81.6237 155.389 83.4437 156.57 84.5048C158.676 86.3974 160.885 88.7505 161.526 91.5996C161.967 93.5604 161.764 95.704 161.764 97.7099" stroke="#FFCF35" stroke-width="3.40803" stroke-linecap="round" stroke-linejoin="round"/>
<path d="M159.464 106.529C165.556 104.821 171.475 102.557 177.834 103.775C179.714 104.135 181.006 105.17 182.668 106.001" stroke="#FFCF35" stroke-width="3.40803" stroke-linecap="round" stroke-linejoin="round"/>
<path d="M183.196 106.001C181.579 108.064 180.333 109.327 177.907 110.337C175.678 111.266 172.946 111.463 170.554 111.245C168.285 111.039 166.09 110.253 164.035 109.312C162.567 108.64 161.438 107.515 159.991 106.792" stroke="#FFCF35" stroke-width="3.40803" stroke-linecap="round" stroke-linejoin="round"/>
<path d="M154.981 114.702C151.632 114.418 149.534 113.492 147.304 110.864C145.595 108.85 144.45 106.541 143.349 104.155C142.587 102.503 142.385 100.894 142.001 99.145C141.746 97.9802 142.343 97.9812 143.349 98.4711C150.002 101.71 156.035 106.23 156.035 114.175" stroke="#FFCF35" stroke-width="3.40803" stroke-linecap="round" stroke-linejoin="round"/>
<path d="M154.717 124.723C157.364 121.391 160.751 119.298 164.928 118.409C168.264 117.699 171.597 117.076 175.021 117.076" stroke="#FFCF35" stroke-width="3.40803" stroke-linecap="round" stroke-linejoin="round"/>
<path d="M175.285 117.34C172.963 122.076 168.111 126.01 162.921 127.243C159.54 128.046 157.251 127.836 154.19 126.305" stroke="#FFCF35" stroke-width="3.40803" stroke-linecap="round" stroke-linejoin="round"/>
<path d="M150.498 131.051C146.952 130.575 143.703 128.508 141.298 125.909C139.191 123.632 136.911 121.237 135.365 118.54C134.5 117.031 133.836 115.467 133.358 113.794C132.697 111.478 136.036 113.845 136.64 114.175C141.417 116.787 145.722 118.949 148.476 123.887C149.443 125.62 150.234 127.968 150.234 129.996" stroke="#FFCF35" stroke-width="3.40803" stroke-linecap="round" stroke-linejoin="round"/>
<path d="M153.927 141.863C158.334 136.979 165.367 131.613 172.384 133.952" stroke="#FFCF35" stroke-width="3.40803" stroke-linecap="round" stroke-linejoin="round"/>
<path d="M171.857 134.215C169.259 138.451 166.582 142.077 161.69 143.708C159.338 144.491 156.544 144.492 154.19 143.708" stroke="#FFCF35" stroke-width="3.40803" stroke-linecap="round" stroke-linejoin="round"/>
<path d="M149.475 145.207C143.095 145.689 137.508 144.363 133.65 139.307C133.419 139.004 132.173 137.594 132.862 137.207C134.416 136.333 137.87 137.397 139.532 137.574C144.105 138.063 147.384 141.469 150.736 144.261" stroke="#FFCF35" stroke-width="3.40803" stroke-linecap="round" stroke-linejoin="round"/>
<path d="M154.517 164.113C155.122 160.877 155.639 157.46 157.983 154.993C159.527 153.368 161.484 152.037 163.498 151.054C165.306 150.171 167.184 149.394 168.977 148.498C169.69 148.142 170.973 147.209 170.36 148.813C167.842 155.399 162.893 162.56 155.462 163.798" stroke="#FFCF35" stroke-width="3.40803" stroke-linecap="round" stroke-linejoin="round"/>
<path d="M150.82 158.764C145.718 159.214 142.132 157.249 138.26 154.257C137.56 153.716 134.392 150.564 135.966 150.564C138.06 150.564 140.227 149.839 142.295 150.043C144.143 150.226 146.048 150.969 147.664 151.865C149.833 153.068 151.864 155.071 152.285 157.592" stroke="#FFCF35" stroke-width="3.40803" stroke-linecap="round" stroke-linejoin="round"/>
<path d="M158.435 177.214C159.412 172.238 161.877 169.691 165.821 166.704C167.359 165.539 168.88 164.355 170.442 163.222C171.995 162.096 171.792 163.642 171.548 164.882C170.458 170.43 168.544 174.3 164.032 177.898C162.44 179.167 161.052 179.85 159.021 179.85" stroke="#FFCF35" stroke-width="3.40803" stroke-linecap="round" stroke-linejoin="round"/>
<path d="M154.855 174.976C150.348 174.572 145.163 173.265 141.628 170.224C140.933 169.626 139.641 168.52 139.454 167.522C139.278 166.586 146.11 167.225 147.053 167.399C151.32 168.188 153.633 171.121 155.46 174.775" stroke="#FFCF35" stroke-width="3.40803" stroke-linecap="round" stroke-linejoin="round"/>
<path d="M159.697 190.109C154.204 191.454 148.267 189.663 143.937 186.007C142.964 185.185 141.865 184.16 141.191 183.07C140.055 181.236 144.669 181.473 145.607 181.445C151.526 181.268 157.26 184.025 159.898 189.302" stroke="#FFCF35" stroke-width="3.40803" stroke-linecap="round" stroke-linejoin="round"/>
<path d="M163.328 192.732C163.816 190.403 164.35 188.852 165.648 186.892C166.827 185.113 168.296 183.771 169.852 182.33C171.007 181.26 172.017 180.354 173.36 179.539C174.245 179.002 174.483 179.095 174.246 180.29C173.472 184.185 172.688 189.585 169.448 192.261C167.925 193.52 165.084 193.943 163.126 193.943" stroke="#FFCF35" stroke-width="3.40803" stroke-linecap="round" stroke-linejoin="round"/>
<path d="M163.53 202.215C160.729 202.716 158.478 203.088 155.684 202.506C154.227 202.203 152.844 201.616 151.559 200.87C150.428 200.213 149.322 199.477 148.241 198.74C147.4 198.167 149.287 197.708 149.609 197.586C152.746 196.396 156.924 196.195 159.876 197.888C161.126 198.605 163.067 199.636 163.329 201.206" stroke="#FFCF35" stroke-width="3.40803" stroke-linecap="round" stroke-linejoin="round"/>
<path d="M167.767 206.855C168.824 203.682 170.508 200.524 172.923 198.168C173.371 197.731 176.276 194.622 176.554 195.31C176.93 196.238 176.704 197.873 176.599 198.852C176.374 200.946 175.656 203.425 174.694 205.308C173.663 207.324 170.319 208.671 168.17 208.671" stroke="#FFCF35" stroke-width="3.40803" stroke-linecap="round" stroke-linejoin="round"/>
<path d="M167.364 214.724C163.467 215.598 160.33 215.08 156.85 213.178C156.173 212.808 155.392 212.471 154.855 211.9C154.193 211.197 155.505 211.397 155.886 211.362C159.088 211.066 161.757 210.655 164.831 211.788C165.886 212.177 166.651 213.106 167.566 213.716" stroke="#FFCF35" stroke-width="3.40803" stroke-linecap="round" stroke-linejoin="round"/>
<path d="M171.398 216.943C172.28 214.824 173.009 212.749 174.526 211.003C175.366 210.036 176.304 209.166 177.238 208.29C177.725 207.834 178.204 207.336 178.707 206.9C179.523 206.192 178.98 209.158 178.976 209.187C178.552 211.885 177.793 214.287 175.591 216.058C174.285 217.108 173.034 217.437 171.6 218.154" stroke="#FFCF35" stroke-width="3.40803" stroke-linecap="round" stroke-linejoin="round"/>
<path d="M75.6051 115.049C74.8652 116.177 72.5247 118.593 73.6444 120.186C74.0626 120.781 74.8881 121.147 75.6051 121.067C77.4063 120.867 78.4182 118.655 78.2358 117.059C77.9805 114.825 76.4777 114.693 75.5182 116.612C75.2627 117.123 75.0029 118.315 75.2949 118.834C75.8498 119.82 76.4187 118.431 76.4985 117.953" stroke="#F2F7FC" stroke-width="3.40803" stroke-linecap="round" stroke-linejoin="round"/>
<path d="M70.4676 128.451C69.8533 129.296 68.6054 130.455 69.7479 131.38C70.2838 131.814 71.2945 131.5 71.7706 131.119C72.8957 130.219 72.4282 129.208 71.3611 128.675" stroke="#F2F7FC" stroke-width="3.40803" stroke-linecap="round" stroke-linejoin="round"/>
<path d="M72.0314 141.629C71.7088 142.214 70.7656 143.366 71.4109 144.036C71.7128 144.35 72.284 144.6 72.6519 144.26C73.371 143.594 73.1932 142.434 72.9249 141.629" stroke="#F2F7FC" stroke-width="3.40803" stroke-linecap="round" stroke-linejoin="round"/>
<path d="M75.8282 153.468C74.4905 156.386 78.8646 154.093 76.2749 152.798" stroke="#F2F7FC" stroke-width="3.40803" stroke-linecap="round" stroke-linejoin="round"/>
<path d="M109.557 168.88C107.661 170.183 105.942 171.719 103.972 172.9" stroke="#F2F7FC" stroke-width="3.40803" stroke-linecap="round" stroke-linejoin="round"/>
<path d="M172.541 225.612C170.249 216.382 166.757 207.911 163.805 198.941C161.522 192.003 160.026 184.688 157.949 177.665C152.087 157.848 150.176 136.569 155.665 116.415C157.955 108.01 161.995 97.7231 166.982 90.3738C171.426 83.825 179.064 79.0336 185.645 74.9209" stroke="#ED4723" stroke-width="3.40803" stroke-linecap="round" stroke-linejoin="round"/>
<path d="M112.013 176.251C110.282 177.801 108.571 179.216 106.652 180.495" stroke="#F2F7FC" stroke-width="3.40803" stroke-linecap="round" stroke-linejoin="round"/>
<path d="M115.14 182.281C114.137 183.299 113.191 184.348 112.236 185.408" stroke="#F2F7FC" stroke-width="3.40803" stroke-linecap="round" stroke-linejoin="round"/>
<path d="M119.385 187.643C118.387 188.286 117.435 188.954 116.481 189.653" stroke="#F2F7FC" stroke-width="3.40803" stroke-linecap="round" stroke-linejoin="round"/>
<path d="M122.289 191.439C121.778 192.047 121.255 192.637 120.725 193.226" stroke="#F2F7FC" stroke-width="3.40803" stroke-linecap="round" stroke-linejoin="round"/>
<path d="M173.43 227.813C165.177 229.602 153.653 230.418 147.874 237.388C144.866 241.014 143.252 246.992 143.562 251.648C144.134 260.226 149.96 268.524 159.216 268.761C164.532 268.897 170.936 261.447 167.806 256.125C166.456 253.831 164.708 252.046 162.002 252.046C158.828 252.046 158.32 254.197 157.226 256.822" stroke="#F2F7FC" stroke-width="3.40803" stroke-linecap="round" stroke-linejoin="round"/>
<path d="M119.618 151.758C109.196 157.35 124.436 166.234 126.052 157.993C127.09 152.7 121.961 149.599 117.827 152.355" stroke="#F2F7FC" stroke-width="3.40803" stroke-linecap="round" stroke-linejoin="round"/>
<path d="M122.005 154.743C120.662 154.578 118.272 153.87 117.959 155.87C117.701 157.525 118.763 159.856 120.778 159.353C122.915 158.818 124.477 153.549 121.409 153.549C118.63 153.549 119.433 158.789 121.939 158.789C124.704 158.789 122.16 155.344 121.409 154.743" stroke="#F2F7FC" stroke-width="3.40803" stroke-linecap="round" stroke-linejoin="round"/>
<path d="M116.036 145.788C117.183 141.487 117.641 136.52 119.319 132.389C120.353 129.843 121.923 135.725 122.138 136.435C123.246 140.101 124.362 143.808 124.99 147.579" stroke="#F2F7FC" stroke-width="3.40803" stroke-linecap="round" stroke-linejoin="round"/>
<path d="M114.843 146.385C110.65 144.484 107.429 142.134 103.633 139.652C103.071 139.285 100.134 137.368 100.184 139.221C100.312 143.953 106.159 149.315 108.276 153.548" stroke="#F2F7FC" stroke-width="3.40803" stroke-linecap="round" stroke-linejoin="round"/>
<path d="M107.679 154.146C106.162 154.889 95.8566 158.283 97.4641 160.248C99.532 162.775 103.587 164.039 106.485 165.488" stroke="#F2F7FC" stroke-width="3.40803" stroke-linecap="round" stroke-linejoin="round"/>
<path d="M84.9941 189.962C81.7645 186.828 66.9269 175.342 65.0624 185.784C64.5423 188.696 67.9258 191.892 70.6672 192.284C74.0129 192.762 75.0308 190.827 72.458 188.768" stroke="#F2F7FC" stroke-width="3.40803" stroke-linecap="round" stroke-linejoin="round"/>
<path d="M82.6069 186.381C78.0815 181.131 73.3512 175.497 68.2136 170.827C65.0876 167.985 60.8015 165.025 56.3409 165.521C52.2234 165.978 53.2412 172.346 54.8153 174.707C57.5989 178.882 63.2103 177.582 59.9226 172.651" stroke="#F2F7FC" stroke-width="3.40803" stroke-linecap="round" stroke-linejoin="round"/>
<path d="M75.4433 177.427C72.9879 170.205 67.7791 164.297 64.9634 157.13C62.3218 150.406 56.8672 143.062 49.2436 141.676C42.0649 140.37 40.4782 148.669 43.9373 153.416C45.238 155.2 49.9524 158.371 52.1289 156.467C54.7022 154.215 52.7937 151.195 50.9681 149.37" stroke="#F2F7FC" stroke-width="3.40803" stroke-linecap="round" stroke-linejoin="round"/>
<path d="M64.1011 152.952C63.3048 148.492 62.5514 143.534 60.453 139.454C57.8348 134.363 56.5168 128.893 53.7207 123.833C50.4272 117.874 41.6559 108.32 34.585 114.282C28.6754 119.265 32.0063 130.201 40.2892 130.201C43.286 130.201 45.0774 129.084 44.9985 126.089C44.9147 122.905 43.4001 122.006 40.8198 120.716" stroke="#F2F7FC" stroke-width="3.40803" stroke-linecap="round" stroke-linejoin="round"/>
<path d="M56.9374 110.568C56.4688 99.2431 56.4464 79.5323 67.8484 72.031C71.684 69.5075 81.766 64.7478 80.1523 73.6228C78.8575 80.7445 70.7066 83.9055 66.8203 89.011C61.6575 95.7935 58.1884 102.662 57.5343 111.165" stroke="#F2F7FC" stroke-width="3.40803" stroke-linecap="round" stroke-linejoin="round"/>
<path d="M181.702 186.381C181.702 181.444 180.681 173.95 184.222 169.799C185.873 167.863 189.192 168.064 190.324 170.329C193.322 176.326 187.107 182.275 182.895 185.784" stroke="#F2F7FC" stroke-width="3.40803" stroke-linecap="round" stroke-linejoin="round"/>
<path d="M179.313 159.518C177.68 154.21 177.097 148.428 180.242 143.665C182.319 140.52 185.945 139.19 186.941 144.262C187.55 147.364 187.277 150.753 185.88 153.548C184.506 156.297 182.305 157.27 180.507 159.518" stroke="#F2F7FC" stroke-width="3.40803" stroke-linecap="round" stroke-linejoin="round"/>
<path d="M192.447 160.712C193.065 156.105 193.977 150.149 198.416 147.613C200.846 146.224 204.386 145.509 204.386 149.37C204.386 154.386 196.806 158.801 193.043 161.309" stroke="#F2F7FC" stroke-width="3.40803" stroke-linecap="round" stroke-linejoin="round"/>
<path d="M86.0456 189.936C81.9485 187.205 82.9191 192.188 85.4666 192.188C88.756 192.188 87.6 188.864 86.0456 187.62" stroke="#ED4723" stroke-width="3.40803" stroke-linecap="round" stroke-linejoin="round"/>
<path d="M46.6726 101.348C39.2622 93.3784 37.3004 86.1682 38.4378 75.6787C38.6873 73.3782 41.2834 61.2311 45.9649 65.5782C51.6493 70.8566 48.5389 78.3016 47.2516 84.8141C46.2249 90.0078 44.7729 96.3905 47.2516 101.348" stroke="#ED4723" stroke-width="3.40803" stroke-linecap="round" stroke-linejoin="round"/>
<path d="M130.05 227.572C124.977 225.881 113.571 223.566 109.077 227.958C107.466 229.532 103.117 236.257 108.048 236.257C112.439 236.257 116.19 232.985 120.142 231.496C123.962 230.057 127.761 228.243 131.787 227.572" stroke="#ED4723" stroke-width="3.40803" stroke-linecap="round" stroke-linejoin="round"/>
<path d="M143.367 230.467C138.33 232.146 133.253 233.311 129.406 237.158C127.525 239.039 124.592 242.243 124.292 244.942C123.959 247.935 125.076 254.076 129.439 253.531C131.516 253.271 133.341 244.663 134.231 242.948C136.534 238.513 139.801 234.388 143.946 231.625" stroke="#ED4723" stroke-width="3.40803" stroke-linecap="round" stroke-linejoin="round"/>
<path d="M166.765 90.6717C166.288 85.2452 165.492 78.9711 167.25 73.6982" stroke="#ED4723" stroke-width="3.40803" stroke-linecap="round" stroke-linejoin="round"/>
<path d="M167.008 91.3993C170.242 90.5463 173.416 90.3902 176.68 91.1434C178.6 91.5866 180.793 92.1268 182.769 92.1268" stroke="#ED4723" stroke-width="3.40803" stroke-linecap="round" stroke-linejoin="round"/>
<path d="M161.431 98.4316C161.291 94.7974 159.042 91.7125 156.339 89.46" stroke="#ED4723" stroke-width="3.40803" stroke-linecap="round" stroke-linejoin="round"/>
<path d="M159.49 106.676C162.163 106.154 164.102 105.981 166.765 106.433C168.764 106.773 170.934 107.178 172.827 107.888" stroke="#ED4723" stroke-width="3.40803" stroke-linecap="round" stroke-linejoin="round"/>
<path d="M155.369 114.919C154.138 110.883 151.487 108.33 148.337 105.705" stroke="#ED4723" stroke-width="3.40803" stroke-linecap="round" stroke-linejoin="round"/>
<path d="M152.993 132.965C153.675 130.535 154.42 128.387 156.132 126.457C157.143 125.317 158.6 124.615 159.944 123.943C161.409 123.211 163.202 122.291 164.824 122.021" stroke="#ED4723" stroke-width="3.40803" stroke-linecap="round" stroke-linejoin="round"/>
<path d="M152.55 138.88C152.55 135.755 152.343 132.508 150.496 129.875C148.53 127.071 145.758 125.3 143.233 123.056" stroke="#ED4723" stroke-width="3.40803" stroke-linecap="round" stroke-linejoin="round"/>
<path d="M153.29 153.522C152.967 151.541 152.872 149.829 153.569 147.918C154.239 146.082 155.039 144.158 156.231 142.594C158.205 140.005 161.13 138.9 164.086 137.845" stroke="#ED4723" stroke-width="3.40803" stroke-linecap="round" stroke-linejoin="round"/>
<path d="M152.846 152.486C152.535 150.506 152.157 148.494 151.022 146.8C150.194 145.565 148.667 144.496 147.472 143.645C146.338 142.838 145.068 142.541 143.758 142.134C143.033 141.908 142.378 141.542 141.606 141.542" stroke="#ED4723" stroke-width="3.40803" stroke-linecap="round" stroke-linejoin="round"/>
<path d="M155.656 166.98C155.818 164.012 156.12 161.079 158.235 158.78C159.732 157.155 161.377 155.67 163.198 154.409" stroke="#ED4723" stroke-width="3.40803" stroke-linecap="round" stroke-linejoin="round"/>
<path d="M154.621 165.797C154.461 162.593 152.893 159.31 150.464 157.219C148.942 155.91 147.358 155.023 145.452 154.393C144.713 154.149 144.001 153.78 143.233 153.67" stroke="#ED4723" stroke-width="3.40803" stroke-linecap="round" stroke-linejoin="round"/>
<path d="M159.797 181.918C159.774 178.707 160.94 176.377 162.772 173.866C163.691 172.605 164.93 171.623 165.861 170.382" stroke="#ED4723" stroke-width="3.40803" stroke-linecap="round" stroke-linejoin="round"/>
<path d="M145.747 169.643C147.529 169.993 149.455 170.25 151.087 171.105C152.33 171.756 153.559 172.729 154.604 173.652C155.445 174.395 155.943 175.427 156.756 176.183C157.458 176.834 157.897 177.46 158.17 178.368" stroke="#ED4723" stroke-width="3.40803" stroke-linecap="round" stroke-linejoin="round"/>
<path d="M148.823 185.201C152.134 186.255 155.178 187.214 158.015 189.227C159.493 190.276 160.609 191.658 161.878 192.928" stroke="#ED4723" stroke-width="3.40803" stroke-linecap="round" stroke-linejoin="round"/>
<path d="M169.872 185.734C165.424 189.921 165.076 195.207 165.076 200.922" stroke="#ED4723" stroke-width="3.40803" stroke-linecap="round" stroke-linejoin="round"/>
<path d="M173.069 201.454C169.759 203.986 169.435 208.071 168.806 211.845" stroke="#ED4723" stroke-width="3.40803" stroke-linecap="round" stroke-linejoin="round"/>
<path d="M174.934 212.112C172.95 214.934 171.471 217.174 171.471 220.638" stroke="#ED4723" stroke-width="3.40803" stroke-linecap="round" stroke-linejoin="round"/>
<path d="M152.82 199.323C156.436 200.481 159.835 201.006 162.945 203.379C164.381 204.475 165.857 205.681 166.675 207.317" stroke="#ED4723" stroke-width="3.40803" stroke-linecap="round" stroke-linejoin="round"/>
<path d="M158.682 212.646C160.583 213.035 163.056 212.948 164.78 213.889C165.818 214.455 166.718 215.184 167.622 215.932C168.76 216.872 169.587 217.813 170.405 219.04" stroke="#ED4723" stroke-width="3.40803" stroke-linecap="round" stroke-linejoin="round"/>
<path d="M121.396 151.013C116.103 156.637 127.312 156.205 124.716 151.013C121.774 145.13 119.5 156.952 123.642 152.81" stroke="#ED4723" stroke-width="3.40803" stroke-linecap="round" stroke-linejoin="round"/>
<path d="M97.137 167.635C93.8305 169.003 90.6401 169.538 87.7276 166.961C85.3214 164.833 85.1977 161.54 84.7824 158.55C84.2944 155.036 85.3308 153.254 88.2018 151.163C89.9313 149.902 93.3328 148.996 95.3399 149.665" stroke="#ED4723" stroke-width="3.40803" stroke-linecap="round" stroke-linejoin="round"/>
<path d="M95.3403 149.665C88.3945 144.846 87.4977 134.264 93.8427 128.575C99.3304 123.655 106.085 127.578 108.818 133.043" stroke="#ED4723" stroke-width="3.40803" stroke-linecap="round" stroke-linejoin="round"/>
<path d="M109.266 134.391C108.867 130.695 108.381 127.422 111.488 124.781C113.741 122.866 116.636 121.615 119.599 121.387C123.032 121.123 126.035 123.403 128.285 125.755C130.685 128.264 130.241 131.748 129.932 134.84" stroke="#ED4723" stroke-width="3.40803" stroke-linecap="round" stroke-linejoin="round"/>
<path d="M98.5463 168.344C91.863 169.68 95.4465 180.034 97.4328 183.879C102.448 193.585 110.918 199.587 120.367 204.532C125.995 207.477 131.811 210 137.554 212.703C141.649 214.631 145.746 216.655 150 218.217C152.777 219.236 155.683 219.868 158.459 220.893C162.771 222.485 169.506 225.756 173.619 227.813" stroke="#ED4723" stroke-width="3.40803" stroke-linecap="round" stroke-linejoin="round"/>
<path d="M173.619 227.623C172.166 233.615 174.402 237.404 177.835 242.225C183.626 250.356 187.915 260.52 188.952 270.541C189.739 278.151 182.92 287.283 175.59 289.209C171.894 290.18 167.801 289.724 164.285 288.244C161.184 286.938 156.784 284.897 156.167 281.196" stroke="#ED4723" stroke-width="3.40803" stroke-linecap="round" stroke-linejoin="round"/>
<path d="M173.619 228.381C177.901 235.787 182.214 238.565 188.042 244.452C192.777 249.236 195.501 254.874 198.397 260.832C202.365 268.998 201.45 279.1 196.357 286.407C191.475 293.412 181.855 298.944 173.199 297.107C167.513 295.901 159.687 289.601 157.101 284.43" stroke="#ED4723" stroke-width="3.40803" stroke-linecap="round" stroke-linejoin="round"/>
<path d="M157.277 280.883C156.625 280.204 155.546 280.183 154.867 280.834C154.189 281.486 154.167 282.565 154.819 283.244L157.277 280.883ZM171.202 292.627L171.408 290.935L171.202 292.627ZM184.48 290.035L183.634 288.556L184.48 290.035ZM193.689 268.736L192.066 269.257L193.689 268.736ZM186.257 254.075L184.893 255.096L186.257 254.075ZM178.976 242.821L180.463 241.989L178.976 242.821ZM175.3 227.911C175.145 226.983 174.267 226.356 173.339 226.511C172.411 226.665 171.784 227.543 171.938 228.472L175.3 227.911ZM154.819 283.244C156.681 285.183 159.074 287.735 161.757 289.879C164.425 292.011 167.57 293.9 170.995 294.318L171.408 290.935C168.914 290.631 166.37 289.203 163.885 287.217C161.414 285.243 159.19 282.875 157.277 280.883L154.819 283.244ZM170.995 294.318C175.901 294.918 181.007 293.983 185.325 291.515L183.634 288.556C179.989 290.639 175.628 291.451 171.408 290.935L170.995 294.318ZM185.325 291.515C189.068 289.376 192.177 285.573 194.048 281.387C195.915 277.21 196.656 272.4 195.311 268.214L192.066 269.257C193.077 272.402 192.58 276.319 190.936 279.997C189.296 283.667 186.623 286.848 183.634 288.556L185.325 291.515ZM187.621 253.054C184.879 249.39 182.612 245.831 180.463 241.989L177.489 243.653C179.703 247.611 182.05 251.298 184.893 255.096L187.621 253.054ZM180.463 241.989C178.001 237.586 176.113 232.793 175.3 227.911L171.938 228.472C172.831 233.826 174.882 238.992 177.489 243.653L180.463 241.989ZM195.311 268.214C193.466 262.475 191.264 257.922 187.621 253.054L184.893 255.096C188.278 259.62 190.32 263.824 192.066 269.257L195.311 268.214Z" fill="#FFCF35"/>
<path d="M185.368 228.753C184.53 230.777 183.495 232.457 185.269 234.232C186.436 235.398 188.236 234.689 188.823 233.22C189.665 231.117 188.081 228.917 186.257 228.309" stroke="#FFCF35" stroke-width="3.40803" stroke-linecap="round" stroke-linejoin="round"/>
<path d="M192.921 239.415C194.875 244.625 197.18 238.718 193.366 238.082" stroke="#FFCF35" stroke-width="3.40803" stroke-linecap="round" stroke-linejoin="round"/>
<path d="M200.029 246.967C199.446 251.725 203.285 248.416 200.917 246.522" stroke="#FFCF35" stroke-width="3.40803" stroke-linecap="round" stroke-linejoin="round"/>
<path d="M240.1 242.79C236.346 248.421 231.397 254.12 232.659 261.295C233.34 265.168 234.542 269.329 236.309 272.864" stroke="#FFCF35" stroke-width="3.40803" stroke-linecap="round" stroke-linejoin="round"/>
<path d="M236.815 272.358C240.227 272.729 243.113 268.34 244.284 265.619C245.766 262.174 246.314 257.88 246.151 254.134C245.952 249.556 244.336 245.762 241.111 242.537" stroke="#FFCF35" stroke-width="3.40803" stroke-linecap="round" stroke-linejoin="round"/>
<path d="M241.364 242.537C240.13 248.344 238.787 253.797 239.595 259.722" stroke="#FFCF35" stroke-width="3.40803" stroke-linecap="round" stroke-linejoin="round"/>
<path d="M241.111 241.526C244.576 240.27 247.961 238.463 251.711 238.255C253.591 238.151 255.417 238.494 257.285 238.494" stroke="#FFCF35" stroke-width="3.40803" stroke-linecap="round" stroke-linejoin="round"/>
<path d="M240.605 242.285C241.797 237.155 245.03 234.106 249.815 232.162C252.948 230.889 258.291 229.429 261.609 230.674C264.598 231.795 268.538 232.376 270.426 235.208" stroke="#FFCF35" stroke-width="3.40803" stroke-linecap="round" stroke-linejoin="round"/>
<path d="M242.122 241.526C243.884 245.639 249.901 245.429 253.634 245.008C257.308 244.594 261.476 244.015 264.852 242.411C267.442 241.181 271.184 238.743 271.184 235.461" stroke="#FFCF35" stroke-width="3.40803" stroke-linecap="round" stroke-linejoin="round"/>
<path d="M256.779 246.581C259.62 250.478 258.283 254.782 257.551 259.175C257.052 262.17 255.633 265.124 255.262 268.09C255.119 269.237 254.787 270.451 254.757 271.6C254.744 272.089 255.098 274.444 254.252 273.622C252.646 272.062 251.217 270.258 249.646 268.652C248.475 267.454 246.696 265.691 246.417 264.019" stroke="#FFCF35" stroke-width="3.40803" stroke-linecap="round" stroke-linejoin="round"/>
<path d="M251.726 256.689C251.726 252.475 250.867 247.92 246.671 245.822" stroke="#FFCF35" stroke-width="3.40803" stroke-linecap="round" stroke-linejoin="round"/>
<path d="M258.801 258.206C261.915 258.144 264.573 256.754 267.59 257.799C268.492 258.111 269.083 258.522 269.921 258.964C270.397 259.215 271.678 260.352 271.69 259.975C271.775 257.256 271.96 253.95 271.269 251.312C270.434 248.125 267.288 244.373 263.856 243.801" stroke="#FFCF35" stroke-width="3.40803" stroke-linecap="round" stroke-linejoin="round"/>
<path d="M263.602 250.372C262.444 249.814 261.257 249.332 260.064 248.855" stroke="#FFCF35" stroke-width="3.40803" stroke-linecap="round" stroke-linejoin="round"/>
<path d="M263.35 259.723C263.35 262.229 263.106 264.609 262.564 267.052C262.277 268.34 258.733 267.571 257.537 267.81" stroke="#FFCF35" stroke-width="3.40803" stroke-linecap="round" stroke-linejoin="round"/>
<path d="M249.423 269.579C248.837 270.087 245.616 273.613 244.678 272.808C243.942 272.177 243.224 271.786 242.347 271.348" stroke="#FFCF35" stroke-width="3.40803" stroke-linecap="round" stroke-linejoin="round"/>
<path d="M270.932 247.845C271.535 247.51 274.625 246.317 274.498 245.304C274.409 244.592 273.458 243.678 273.01 243.156C272.125 242.123 271.011 241.245 269.668 241.021" stroke="#FFCF35" stroke-width="3.40803" stroke-linecap="round" stroke-linejoin="round"/>
<path d="M174.566 226.677C182.372 221.285 193.645 218.235 202.327 225.47C207.384 229.684 208.477 236.358 212.514 241.383C219.878 250.547 232.581 247.136 240.812 241.649" stroke="#F2F7FC" stroke-width="3.40803" stroke-linecap="round" stroke-linejoin="round"/>
<path d="M240.877 242.2C238.382 236.639 238.205 230.071 243.891 226.881C246.045 225.673 248.465 225.866 250.843 225.866" stroke="#ED4723" stroke-width="3.40803" stroke-linecap="round" stroke-linejoin="round"/>
<path d="M251.95 226.42C248.39 228.435 247.658 231.482 245.967 234.925C244.626 237.656 243.357 239.675 241.43 241.923" stroke="#ED4723" stroke-width="3.40803" stroke-linecap="round" stroke-linejoin="round"/>
<path d="M240.6 243.308C244.547 248.331 237.707 254.443 233.402 256.596" stroke="#ED4723" stroke-width="3.40803" stroke-linecap="round" stroke-linejoin="round"/>
<path d="M240.323 244.138C237.245 245.677 233.802 247.127 231.726 249.982C230.066 252.264 229.705 255.391 231.741 257.426" stroke="#ED4723" stroke-width="3.40803" stroke-linecap="round" stroke-linejoin="round"/>
<path d="M238.385 242.2C238.016 240.151 237.238 238.475 235.601 237.094C235.259 236.806 230.96 234.051 232.094 235.894C233.83 238.716 235.832 240.508 238.662 241.924" stroke="#ED4723" stroke-width="3.40803" stroke-linecap="round" stroke-linejoin="round"/>
<path d="M238.385 242.753C236.152 242.565 234.35 242.89 232.387 244.015C232.055 244.205 230.603 244.951 230.603 245.46C230.603 246.709 236.851 244.245 237.554 243.861" stroke="#ED4723" stroke-width="3.40803" stroke-linecap="round" stroke-linejoin="round"/>
<path d="M202.587 225.73C206.563 229.138 211.797 230.651 217.548 228.283C223.412 225.869 225.28 221.191 228.551 216.225C231.821 211.258 240.781 208.752 246.46 209.677C249.172 210.118 253.488 211.088 254.028 214.328" stroke="#F2F7FC" stroke-width="3.40803" stroke-linecap="round" stroke-linejoin="round"/>
<path d="M210.903 238.653C213.495 242.915 215.666 247.101 215.872 252.21C216.051 256.637 214.694 260.599 214.11 264.911C213.844 266.873 213.583 268.853 213.623 270.837C213.678 273.548 215.018 276.431 216.737 278.467C217.984 279.945 219.67 280.497 221.43 281.162C222.706 281.645 223.893 282.018 225.257 282.018" stroke="#F2F7FC" stroke-width="3.40803" stroke-linecap="round" stroke-linejoin="round"/>
<path d="M254.195 214.701C255.083 212.22 256.478 209.624 256.478 206.94" stroke="#ED4723" stroke-width="3.40803" stroke-linecap="round" stroke-linejoin="round"/>
<path d="M253.966 215.386C253.929 213.487 253.318 211.713 252.813 209.895C252.504 208.784 252.128 207.661 251.228 206.94" stroke="#ED4723" stroke-width="3.40803" stroke-linecap="round" stroke-linejoin="round"/>
<path d="M253.968 215.614C252.027 213.716 249.663 212.081 248.033 209.908" stroke="#ED4723" stroke-width="3.40803" stroke-linecap="round" stroke-linejoin="round"/>
<path d="M253.51 216.755C250.912 216.709 248.858 216.529 246.663 215.157" stroke="#ED4723" stroke-width="3.40803" stroke-linecap="round" stroke-linejoin="round"/>
<path d="M253.739 216.755C252.332 218.129 250.455 219.02 248.49 219.266" stroke="#ED4723" stroke-width="3.40803" stroke-linecap="round" stroke-linejoin="round"/>
<path d="M254.652 216.07C254.652 218.088 254.366 219.667 253.739 221.548" stroke="#ED4723" stroke-width="3.40803" stroke-linecap="round" stroke-linejoin="round"/>
<path d="M254.88 215.386C256.468 217.084 257.515 219.305 258.076 221.548" stroke="#ED4723" stroke-width="3.40803" stroke-linecap="round" stroke-linejoin="round"/>
<path d="M254.88 214.473C256.961 214.166 260.177 213.05 260.586 210.593" stroke="#ED4723" stroke-width="3.40803" stroke-linecap="round" stroke-linejoin="round"/>
<path d="M255.794 214.93C257.385 215.809 259.594 217.391 261.5 216.756" stroke="#ED4723" stroke-width="3.40803" stroke-linecap="round" stroke-linejoin="round"/>
<path d="M226.121 282.033C226.474 279.516 226.901 277.736 225.436 275.643" stroke="#ED4723" stroke-width="3.40803" stroke-linecap="round" stroke-linejoin="round"/>
<path d="M225.664 282.718C223.922 280.977 222.56 279.57 221.783 277.24" stroke="#ED4723" stroke-width="3.40803" stroke-linecap="round" stroke-linejoin="round"/>
<path d="M225.209 283.632C223.037 283.193 220.71 282.687 219.274 280.893" stroke="#ED4723" stroke-width="3.40803" stroke-linecap="round" stroke-linejoin="round"/>
<path d="M225.209 284.544C223.224 285.706 221.294 286.912 219.274 285.229" stroke="#ED4723" stroke-width="3.40803" stroke-linecap="round" stroke-linejoin="round"/>
<path d="M226.35 284.088C228.478 283.205 229.53 282.493 230.243 280.296C230.561 279.315 230.687 278.487 230.687 277.469" stroke="#ED4723" stroke-width="3.40803" stroke-linecap="round" stroke-linejoin="round"/>
<path d="M226.577 284.772C226.144 287.179 224.961 288.694 222.469 289.109" stroke="#ED4723" stroke-width="3.40803" stroke-linecap="round" stroke-linejoin="round"/>
<path d="M228.175 285.001C228.175 287.242 228.049 288.942 226.578 290.707" stroke="#ED4723" stroke-width="3.40803" stroke-linecap="round" stroke-linejoin="round"/>
<path d="M229.089 283.859C230.232 285.306 230.686 286.419 230.686 288.196" stroke="#ED4723" stroke-width="3.40803" stroke-linecap="round" stroke-linejoin="round"/>
<path d="M230.001 282.946C231.647 282.915 232.94 282.761 233.881 281.349" stroke="#ED4723" stroke-width="3.40803" stroke-linecap="round" stroke-linejoin="round"/>
<path d="M231.371 284.088C232.023 284.522 232.471 284.591 233.197 284.773" stroke="#ED4723" stroke-width="3.40803" stroke-linecap="round" stroke-linejoin="round"/>
<path d="M254.253 213.393C253.687 213.817 252.506 214.4 252.675 215.292C252.827 216.097 253.615 217.456 254.493 217.632C255.875 217.908 256.899 216.035 257.088 214.944C257.416 213.046 254.493 212.762 254.493 214.837" stroke="#FFCF35" stroke-width="3.40803" stroke-linecap="round" stroke-linejoin="round"/>
<path d="M227.292 284.166C226.277 284.8 224.929 285.805 225.54 287.215C225.924 288.101 226.925 288.03 227.533 287.509C228.354 286.806 230.412 284.058 228.87 283.256C226.679 282.117 224.586 285.419 226.329 286.814" stroke="#FFCF35" stroke-width="3.40803" stroke-linecap="round" stroke-linejoin="round"/>
<path d="M196.21 296.536C192.763 302.188 188.341 304.191 182.354 306.15C181.484 306.435 179.893 306.765 179.893 307.899C179.893 309.045 181.322 309.824 182.224 310.23C185.862 311.867 190.681 308.807 192.681 305.827C194.669 302.863 195.915 299.758 196.501 296.244" stroke="#FFCF35" stroke-width="3.40803" stroke-linecap="round" stroke-linejoin="round"/>
<path d="M218.062 310.878C209.911 312.819 206.699 300.512 206.699 294.788C207.727 300.271 212.036 302.328 216.249 305.245C217.502 306.112 219.987 306.254 220.328 308.029C220.662 309.764 219.646 310.501 218.062 310.878Z" stroke="#FFCF35" stroke-width="3.40803" stroke-linecap="round" stroke-linejoin="round"/>
<path d="M200.877 304.897C199.762 309.45 198.738 313.946 198.297 318.618C198.135 320.344 198.692 329.447 201.748 327.777C203.195 326.986 203.744 324.774 203.845 323.261C204.052 320.158 203.325 317.235 202.745 314.217C202.157 311.159 201.676 308.195 201.289 305.104" stroke="#F2F7FC" stroke-width="3.40803" stroke-linecap="round" stroke-linejoin="round"/>
<path d="M190.282 315.952C191.038 318.283 193.335 316.927 191.191 315.497" stroke="#ED4723" stroke-width="3.40803" stroke-linecap="round" stroke-linejoin="round"/>
<path d="M209.215 315.952C209.972 318.283 212.269 316.927 210.124 315.497" stroke="#ED4723" stroke-width="3.40803" stroke-linecap="round" stroke-linejoin="round"/>
<ellipse cx="260.137" cy="223.799" rx="87.8515" ry="11.092" transform="rotate(-2.25596 260.137 223.799)" fill="url(#paint0_radial_412_36893)"/>
<mask id="mask0_412_36893" style="mask-type:alpha" maskUnits="userSpaceOnUse" x="6" y="13" width="366" height="330">
<path d="M188.957 342.627L162.546 318.928C68.7441 235.086 6.81641 179.611 6.81641 111.927C6.81641 56.4511 50.8944 13.1836 106.994 13.1836C138.686 13.1836 169.103 37.5839 188.957 60.3846C208.81 37.5839 239.228 13.1836 270.92 13.1836C327.019 13.1836 371.097 56.4511 371.097 111.927C371.097 179.611 309.169 235.086 215.367 318.928L188.957 342.627Z" fill="#F58706"/>
</mask>
<g mask="url(#mask0_412_36893)">
<rect x="198.692" y="198.63" width="18.7967" height="1.83473" transform="rotate(-134.647 198.692 198.63)" fill="#9B9999"/>
<path d="M260.354 168.547C256.225 172.624 251.558 176.118 246.483 178.931L204.203 202.36L181.82 179.7L205.769 137.712C208.644 132.672 212.195 128.048 216.323 123.97L408.509 -65.8629L452.54 -21.2865L260.354 168.547Z" fill="url(#paint1_linear_412_36893)"/>
<path d="M203.366 202.819L164.742 224.074C161.398 225.914 157.74 222.211 159.622 218.89L181.351 180.531L203.366 202.819Z" fill="url(#paint2_diamond_412_36893)"/>
<path d="M245.047 157.979C239.918 163.045 231.653 162.995 226.587 157.866V157.866C221.521 152.737 221.571 144.472 226.7 139.406L403.149 -34.8821L421.495 -16.3086L245.047 157.979Z" fill="url(#paint3_linear_412_36893)"/>
</g>
<defs>
<radialGradient id="paint0_radial_412_36893" cx="0" cy="0" r="1" gradientUnits="userSpaceOnUse" gradientTransform="translate(174.772 226.537) rotate(-1.60406) scale(122.353 410.776)">
<stop stop-color="#211814" stop-opacity="0.5"/>
<stop offset="1" stop-color="#211814" stop-opacity="0"/>
</radialGradient>
<linearGradient id="paint1_linear_412_36893" x1="280.785" y1="148.654" x2="234.777" y2="100.752" gradientUnits="userSpaceOnUse">
<stop stop-color="#CFCFCF"/>
<stop offset="0.26462" stop-color="#F1F1EF"/>
<stop offset="0.90625" stop-color="white"/>
</linearGradient>
<radialGradient id="paint2_diamond_412_36893" cx="0" cy="0" r="1" gradientUnits="userSpaceOnUse" gradientTransform="translate(200.128 203.372) rotate(-120.606) scale(31.2374 118.844)">
<stop stop-color="#CDCDCD"/>
<stop offset="0.716374" stop-color="#F8F8F3"/>
<stop offset="1" stop-color="#F1F1EF"/>
</radialGradient>
<linearGradient id="paint3_linear_412_36893" x1="312.57" y1="91.2826" x2="293.843" y2="73.054" gradientUnits="userSpaceOnUse">
<stop stop-color="white"/>
<stop offset="0.848958" stop-color="#F1F1EF"/>
</linearGradient>
</defs>
</svg>
