<svg width="346" height="65" viewBox="0 0 346 65" fill="none" xmlns="http://www.w3.org/2000/svg">
<path d="M340.063 49.2813C341.839 49.2813 342.081 37.8409 341.981 32.1208H339.078C339.061 29.0738 338.941 26.2129 338.549 24.1282C337.137 16.6057 335.219 34.0014 334.412 29.0648C333.605 24.1282 334.412 5.55717 332.394 13.0796C331.462 16.5522 331.584 24.5335 331.747 32.1208H325.967C325.873 25.7631 325.802 19.6415 325.027 21.3073C324.511 22.4175 324.182 26.9869 323.825 32.1208H319.127C318.809 25.0848 318.475 18.2061 317.559 16.6057C315.541 13.0796 316.348 24.1282 314.734 24.1282C313.119 24.1282 312.11 0.385485 310.596 3.91163C309.083 7.43777 309.284 26.0088 308.174 29.0648C307.985 29.5862 307.866 30.6757 307.778 32.1208H296.883C296.762 27.9208 296.785 24.1282 296.065 24.1282C294.45 24.1282 292.533 -8.78248 288.597 3.91163C286.651 10.1878 285.766 22.5549 285.222 32.1208H283.393C283.398 24.4085 283.789 18.6631 282.34 24.1282C280.221 32.1208 278.909 4.1467 278.203 16.6057C277.928 21.4559 277.806 27.0899 277.622 32.1208H273.603C273.398 27.5901 273.152 23.2299 272.451 21.3073C270.735 16.6057 268.313 20.8372 268.313 8.61328C268.313 -3.61067 266.093 4.85195 265.589 13.0796C265.341 17.1124 265.652 25.2681 265.664 32.1208H259.339C258.632 20.641 257.969 8.42159 257.112 13.0796C256.319 17.3873 255.886 25.4325 255.437 32.1208H252.93C252.809 25.9698 252.715 19.821 251.864 21.3073C251.286 22.3171 251.032 26.7917 250.864 32.1208H248.278C248.124 23.946 247.859 16.6057 246.92 16.6057C244.8 16.6057 245.507 32.1208 243.993 32.1208C242.479 32.1208 243.589 17.5459 241.975 13.0796C240.36 8.61328 238.443 -0.790032 237.03 3.91163C236.195 6.6919 236.877 20.4049 236.76 32.1208H232.078C232.017 28.1733 231.862 24.2842 231.379 21.3073C229.663 10.729 228.15 22.2476 228.15 13.0796C228.15 3.91163 226.03 4.85195 225.627 13.0796C225.439 16.9137 225.492 24.934 225.449 32.1208H223.003C222.969 35.8036 223.205 43.7335 224.416 45.9904C225.224 47.4968 225.399 40.356 225.449 32.1208H232.078C232.235 42.2003 231.78 52.6597 234.608 49.2813C236.216 47.36 236.679 40.2173 236.76 32.1208H243.993H248.278C248.471 42.3929 248.487 53.9828 249.442 53.9828C250.544 53.9828 250.564 41.6776 250.864 32.1208H252.93C253.038 37.6442 253.166 43.1693 253.883 43.1693C254.604 43.1693 255.027 38.2069 255.437 32.1208H259.339C259.88 40.9182 260.448 49.2813 261.148 49.2813C262.763 49.2813 260.644 39.6433 263.772 43.1693C265.367 44.967 265.677 39.2488 265.664 32.1208H273.603C273.898 38.669 274.106 45.5736 275.478 45.9904C276.896 46.4211 277.335 40.013 277.622 32.1208H283.393C283.391 35.6877 283.471 39.6754 283.854 43.1693C284.466 48.7553 284.666 41.9028 285.222 32.1208H296.883C297.034 37.3315 297.407 43.1693 299.698 43.1693C303.835 43.1693 299.899 53.2776 304.138 53.9828C307.653 54.5677 307.35 39.1445 307.778 32.1208H319.127C319.51 40.5871 319.87 49.2813 321.192 49.2813C322.661 49.2813 323.276 40.0311 323.825 32.1208H325.967C326.032 36.5294 326.109 41.0516 326.44 43.1693C327.247 48.341 328.357 29.0648 329.164 35.4118C329.972 41.7589 328.458 49.2813 330.88 49.2813C332.184 49.2813 331.938 40.969 331.747 32.1208H339.078C339.121 40.0685 338.458 49.2813 340.063 49.2813Z" fill="#ED4723"/>
<path d="M61.7018 49.2813C59.2242 49.2813 58.8864 37.8409 59.0271 32.1208H63.0764C63.0995 29.0738 63.2673 26.2129 63.8134 24.1282C65.7842 16.6057 68.4589 34.0014 69.585 29.0648C70.7112 24.1282 69.585 5.55717 72.4004 13.0796C73.7001 16.5522 73.5299 24.5335 73.3022 32.1208H81.3655C81.4971 25.7631 81.596 19.6415 82.6767 21.3073C83.3969 22.4175 83.8555 26.987 84.3528 32.1208H90.9064C91.35 25.0848 91.8159 18.2061 93.0937 16.6057C95.9091 13.0796 94.783 24.1282 97.0353 24.1282C99.2876 24.1282 100.695 0.385485 102.807 3.91163C104.918 7.43777 104.637 26.0088 106.185 29.0648C106.45 29.5862 106.615 30.6757 106.738 32.1208H121.936C122.105 27.9208 122.073 24.1282 123.078 24.1282C125.33 24.1282 128.005 -8.78248 133.495 3.91163C136.209 10.1878 137.444 22.555 138.203 32.1208H140.754C140.747 24.4085 140.201 18.6631 142.223 24.1282C145.179 32.1208 147.009 4.1467 147.994 16.6057C148.378 21.4559 148.548 27.0899 148.804 32.1208H154.412C154.697 27.5901 155.04 23.2299 156.018 21.3073C158.411 16.6057 161.79 20.8372 161.79 8.61328C161.79 -3.61067 164.887 4.85195 165.591 13.0796C165.936 17.1124 165.503 25.2681 165.486 32.1208H174.309C175.295 20.641 176.22 8.42159 177.415 13.0796C178.521 17.3873 179.125 25.4325 179.752 32.1208H183.249C183.417 25.9698 183.549 19.821 184.735 21.3073C185.542 22.3171 185.897 26.7917 186.131 32.1208H189.739C189.953 23.946 190.323 16.6057 191.633 16.6057C194.589 16.6057 193.604 32.1208 195.716 32.1208C197.827 32.1208 196.279 17.5459 198.531 13.0796C200.783 8.61328 203.458 -0.790031 205.429 3.91163C206.594 6.6919 205.643 20.4049 205.806 32.1208H212.336C212.422 28.1733 212.638 24.2842 213.312 21.3073C215.705 10.729 217.817 22.2476 217.817 13.0796C217.817 3.91163 220.773 4.85195 221.336 13.0796C221.598 16.9137 221.524 24.934 221.584 32.1208H224.996C225.043 35.8036 224.714 43.7335 223.025 45.9904C221.897 47.4968 221.653 40.356 221.584 32.1208H212.336C212.118 42.2003 212.752 52.6598 208.807 49.2813C206.564 47.36 205.919 40.2173 205.806 32.1208H195.716H189.739C189.47 42.3929 189.447 53.9828 188.114 53.9828C186.578 53.9828 186.55 41.6776 186.131 32.1208H183.249C183.099 37.6442 182.919 43.1693 181.92 43.1693C180.914 43.1693 180.323 38.2069 179.752 32.1208H174.309C173.553 40.9182 172.762 49.2813 171.785 49.2813C169.532 49.2813 172.488 39.6433 168.124 43.1693C165.9 44.967 165.468 39.2488 165.486 32.1208H154.412C154 38.669 153.709 45.5736 151.795 45.9904C149.818 46.4211 149.206 40.013 148.804 32.1208H140.754C140.757 35.6877 140.645 39.6754 140.111 43.1693C139.257 48.7553 138.979 41.9028 138.203 32.1208H121.936C121.726 37.3315 121.206 43.1693 118.01 43.1693C112.239 43.1693 117.729 53.2776 111.816 53.9828C106.913 54.5677 107.335 39.1445 106.738 32.1208H90.9064C90.3726 40.5871 89.8711 49.2813 88.026 49.2813C85.9772 49.2813 85.119 40.0311 84.3528 32.1208H81.3655C81.2741 36.5294 81.167 41.0516 80.7059 43.1693C79.5797 48.341 78.0313 29.0648 76.9051 35.4118C75.7789 41.7589 77.8905 49.2813 74.512 49.2813C72.6931 49.2813 73.0367 40.969 73.3022 32.1208H63.0764C63.0162 40.0685 63.9405 49.2813 61.7018 49.2813Z" fill="#FFCDD6"/>
<rect x="55.6345" y="31.416" width="286.805" height="1.96073" fill="#F2F7FC"/>
<circle cx="342.732" cy="32.7239" r="3.26788" fill="#F2F7FC"/>
<rect x="-0.000244141" y="0.0449219" width="64.7041" height="64.7041" rx="32.3521" fill="#F2F7FC"/>
<path d="M22.8745 21.7674C22.8745 20.7956 23.8971 20.1636 24.7662 20.5982L48.64 32.5351C49.6034 33.0168 49.6034 34.3917 48.64 34.8734L24.7662 46.8103C23.8971 47.2448 22.8745 46.6128 22.8745 45.6411V21.7674Z" fill="#001935"/>
</svg>
