<svg width="247" height="237" viewBox="0 0 247 237" fill="none" xmlns="http://www.w3.org/2000/svg">
<path fill-rule="evenodd" clip-rule="evenodd" d="M-16.667 100.094C-16.667 155.293 27.7877 200.142 82.5013 200.142C137.215 200.142 181.67 155.293 181.67 100.094C181.67 44.8951 137.215 0.0458984 82.5013 0.0458984C27.7877 0.0458984 -16.667 44.8951 -16.667 100.094ZM8.20508 99.7802C8.20508 58.3809 41.4684 24.8224 82.5035 24.8224C123.539 24.8224 156.802 58.3809 156.802 99.7802C156.802 141.179 123.539 174.738 82.5035 174.738C41.4684 174.738 8.20508 141.179 8.20508 99.7802Z" fill="#F2F7FC"/>
<path fill-rule="evenodd" clip-rule="evenodd" d="M47.9961 159.997C47.9961 215.197 92.4508 260.046 147.164 260.046C201.878 260.046 246.333 215.197 246.333 159.997C246.333 104.798 201.878 59.9492 147.164 59.9492C92.4508 59.9492 47.9961 104.798 47.9961 159.997ZM72.8682 159.684C72.8682 118.284 106.131 84.7259 147.167 84.7259C188.202 84.7259 221.465 118.284 221.465 159.684C221.465 201.083 188.202 234.641 147.167 234.641C106.131 234.641 72.8682 201.083 72.8682 159.684Z" fill="#FFCDD6"/>
<path d="M82.5013 200.142C27.7877 200.142 -16.667 155.293 -16.667 100.094C-16.667 44.8951 27.7877 0.0458984 82.5013 0.0458984C103.019 0.0458984 122.915 6.31852 139.702 18.2365L125.402 38.6225C112.967 29.5272 98.0449 24.8227 82.5013 24.8227C41.4661 24.8227 8.20279 58.3812 8.20279 99.7805C8.20279 141.18 41.4661 174.738 82.5013 174.738C108.925 174.738 132.863 160.939 146.23 138.357L167.68 151.216C149.961 181.325 117.319 200.142 82.5013 200.142Z" fill="#F2F7FC"/>
</svg>
