<svg width="222" height="237" viewBox="0 0 222 237" fill="none" xmlns="http://www.w3.org/2000/svg">
<path d="M82.326 240.137C80.2863 244.417 74.066 244.011 72.6001 239.502L7.88487 40.4534C7.57883 39.5121 7.61529 38.4929 7.98784 37.5758L19.1854 10.0126C20.1623 7.60789 23.0657 6.65733 25.2756 8.01868L207.831 120.477C209.632 121.586 210.326 123.862 209.451 125.787L198.719 149.396C198.181 150.581 197.123 151.449 195.856 151.746L170.76 157.628C167.756 158.332 166.513 161.927 168.44 164.336L213.069 220.122C214.044 221.341 214.262 223.001 213.635 224.43L202.015 250.922C201.703 251.634 201.2 252.245 200.561 252.688L183.321 264.622C178.249 268.134 171.311 267.036 167.571 262.129L112.841 190.323C110.937 187.825 107.064 188.226 105.713 191.062L92.6695 218.432L82.326 240.137Z" fill="url(#paint0_linear_406_22781)"/>
<path fill-rule="evenodd" clip-rule="evenodd" d="M65.6145 241.773L0.89934 42.7248C0.0577152 40.1361 0.158 37.3333 1.18251 34.8115L12.3801 7.24821C15.0666 0.635324 23.0508 -1.97871 29.128 1.76498L211.683 114.223C216.635 117.274 218.544 123.532 216.137 128.827L205.406 152.436C203.925 155.694 201.017 158.081 197.532 158.897L177.29 163.642L218.804 215.534C221.486 218.886 222.086 223.449 220.362 227.381L208.742 253.873C207.884 255.83 206.499 257.511 204.742 258.727L187.502 270.662C179.202 276.409 167.849 274.612 161.729 266.582L110.125 198.878L88.9568 243.297C84.0615 253.569 69.1328 252.594 65.6145 241.773ZM72.6 239.502C74.0659 244.011 80.2862 244.417 82.3259 240.137L105.713 191.062C107.064 188.227 110.937 187.825 112.841 190.323L167.571 262.129C171.311 267.036 178.249 268.135 183.321 264.623L200.561 252.688C201.2 252.245 201.703 251.634 202.015 250.923L213.635 224.43C214.262 223.001 214.044 221.341 213.069 220.122L168.44 164.337C166.512 161.927 167.756 158.332 170.76 157.628L195.856 151.746C197.123 151.449 198.181 150.581 198.719 149.396L209.45 125.788C210.326 123.862 209.632 121.586 207.831 120.477L25.2755 8.01893C23.0656 6.65759 20.1622 7.60814 19.1853 10.0128L7.98774 37.5761C7.61519 38.4931 7.57872 39.5123 7.88476 40.4537L72.6 239.502Z" fill="#F2F7FC"/>
<path d="M93.9207 215.125C92.2392 218.472 87.3487 218.108 86.1816 214.549L20.3314 13.7306C19.1112 10.0095 23.2007 6.7924 26.5299 8.85437L207.026 120.646C210.214 122.62 209.41 127.466 205.755 128.305L156.668 139.58C153.657 140.271 152.399 143.869 154.324 146.285L212.937 219.88C214.43 221.755 214.052 224.497 212.108 225.899L187.747 243.467C185.935 244.774 183.416 244.432 182.018 242.689L123.422 169.643C121.509 167.259 117.77 167.654 116.397 170.386L93.9207 215.125Z" fill="#001022"/>
<path fill-rule="evenodd" clip-rule="evenodd" d="M79.2021 216.838L13.3519 16.0193C9.9964 5.78627 21.2424 -3.06064 30.3977 2.60976L210.894 114.401C219.66 119.831 217.45 133.156 207.4 135.464L163.184 145.62L218.683 215.304C222.789 220.46 221.751 228.002 216.405 231.857L192.043 249.425C187.059 253.019 180.133 252.079 176.288 247.285L120.76 178.064L100.484 218.423C95.8606 227.627 82.4115 226.625 79.2021 216.838ZM86.1818 214.549C87.3489 218.108 92.2394 218.472 93.9208 215.125L116.398 170.386C117.77 167.654 121.509 167.259 123.422 169.643L182.018 242.689C183.416 244.432 185.935 244.774 187.747 243.467L212.109 225.899C214.053 224.497 214.43 221.755 212.937 219.88L154.324 146.285C152.399 143.869 153.657 140.271 156.668 139.58L205.755 128.305C209.41 127.466 210.214 122.621 207.026 120.646L26.5301 8.85439C23.2009 6.79242 19.1114 10.0095 20.3316 13.7306L86.1818 214.549Z" fill="#F2F7FC"/>
<defs>
<linearGradient id="paint0_linear_406_22781" x1="14.7566" y1="26.9282" x2="185.799" y2="250.961" gradientUnits="userSpaceOnUse">
<stop stop-color="#FFFDB1"/>
<stop offset="0.161458" stop-color="#FEE4BF"/>
<stop offset="0.328125" stop-color="#F0BDD0"/>
<stop offset="0.494792" stop-color="#DC8DDC"/>
<stop offset="0.651042" stop-color="#C2A6F1"/>
<stop offset="0.828125" stop-color="#CDF9E8"/>
<stop offset="1" stop-color="#EBF3D0"/>
</linearGradient>
</defs>
</svg>
