<svg width="260" height="232" viewBox="0 0 260 232" fill="none" xmlns="http://www.w3.org/2000/svg">
<path d="M90.1655 184.731C95.2456 167.11 111.059 154.26 129.781 154.26C135.252 154.26 140.476 155.357 145.255 157.351C154.377 144.398 169.172 135.978 185.872 135.978C212.648 135.978 234.526 157.625 235.977 184.89C249.296 186.371 259.667 198.013 259.667 212.155C259.667 227.3 247.772 239.578 233.1 239.578H85.5067C70.8343 239.578 58.9399 227.3 58.9399 212.155C58.9399 197.009 70.8343 184.731 85.5067 184.731H90.1655Z" fill="#F2F7FC"/>
<path d="M73.9231 133.947C54.4942 114.519 28.1429 103.604 0.666263 103.604L0.66626 135.614C19.6531 135.614 37.8623 143.157 51.288 156.583C56.5396 161.834 60.891 167.818 64.243 174.293C68.7326 171.661 73.7547 169.833 79.1396 169.02C81.9723 163.652 85.6047 158.766 89.884 154.541C85.4885 147.094 80.1419 140.166 73.9231 133.947Z" fill="#368EF3"/>
<path d="M110.552 97.3177C81.4081 68.1743 41.8812 51.8018 0.666286 51.8018L0.66626 84.0312C33.3334 84.0312 64.6627 97.0082 87.7618 120.107C94.8014 127.147 100.901 134.951 105.979 143.324C113.203 139.959 121.252 138.072 129.782 138.072C133.158 138.072 136.471 138.371 139.696 138.945C139.826 138.817 139.956 138.689 140.086 138.561C132.636 123.428 122.704 109.47 110.552 97.3177Z" fill="#FFCF35"/>
<path d="M147.18 60.6879C108.322 21.8301 55.6195 7.20625e-06 0.666263 0L0.66626 32.3919C47.0287 32.3919 91.4922 50.8093 124.275 83.5925C137.154 96.4711 147.816 111.152 156.015 127.043C164.963 122.417 175.1 119.788 185.874 119.788C186.771 119.788 187.664 119.806 188.552 119.842C178.424 98.0596 164.492 77.9998 147.18 60.6879Z" fill="#ED4723"/>
</svg>
