<svg width="40" height="41" viewBox="0 0 40 41" fill="none" xmlns="http://www.w3.org/2000/svg">
<path d="M18.7472 0.922852C19.5857 0.922852 20.4243 0.922852 21.2628 0.922852C21.3616 0.949224 21.4582 0.990981 21.5592 0.997574C23.9585 1.169 26.2349 1.79315 28.4214 2.78872C37.4853 6.91824 42.1567 17.5904 39.0307 27.0472C36.4228 34.937 29.6221 40.2819 21.3463 40.8665C16.0624 41.2401 11.3296 39.7105 7.26851 36.3216C-0.370754 29.9504 -2.23008 19.2914 2.8452 10.7247C5.9009 5.56664 10.4691 2.43049 16.3632 1.27449C17.1491 1.12284 17.9503 1.03933 18.7472 0.922852ZM6.79873 12.2433C6.79873 17.8299 6.79873 23.3506 6.79873 28.8977C6.92606 28.9065 7.02704 28.9174 7.13021 28.9174C9.94444 28.9174 12.7565 28.9218 15.5707 28.913C15.9571 28.9108 16.35 28.8735 16.7276 28.7944C18.6769 28.3878 20.1323 27.3878 20.5757 25.3308C20.7206 24.6539 20.7272 23.9308 20.6965 23.2341C20.6614 22.4364 20.4309 21.6694 19.9589 21.0034C19.4782 20.3221 18.8042 19.9661 17.8757 19.8606C18.0754 19.7793 18.1676 19.7398 18.262 19.7046C18.9447 19.4409 19.476 19.0057 19.8052 18.342C20.6723 16.597 19.9611 14.0389 18.3169 12.9971C17.4278 12.4345 16.4422 12.2433 15.4039 12.2455C12.6643 12.2499 9.92688 12.2477 7.18728 12.2455C7.07094 12.2433 6.95459 12.2433 6.79873 12.2433ZM25.0034 23.7286C25.1703 23.7286 25.3459 23.7286 25.5193 23.7286C28.0635 23.7286 30.61 23.7198 33.1542 23.7374C33.5339 23.7396 33.6722 23.6143 33.6437 23.2539C33.5844 22.5089 33.602 21.7485 33.4593 21.021C33.0378 18.8563 31.8963 17.2607 29.655 16.7223C28.8955 16.5399 28.0811 16.4761 27.2996 16.5091C25.1593 16.5992 23.4141 17.4673 22.3495 19.4057C21.3309 21.2606 21.0938 23.2319 21.7194 25.2692C22.3209 27.2252 23.6161 28.4889 25.6071 29.0032C26.9176 29.3438 28.2435 29.3614 29.5694 29.1284C30.4914 28.9658 31.3607 28.6471 32.0961 28.0384C33.0861 27.2186 33.4944 26.1483 33.4857 24.8582C33.3539 24.8517 33.2683 24.8429 33.1805 24.8429C32.3288 24.8429 31.4771 24.8429 30.6363 24.8429C30.0721 26.3703 28.845 26.9439 27.0362 26.5483C25.7147 26.2582 24.8717 25.1198 25.0034 23.7286ZM31.0468 15.2498C31.0468 14.5575 31.0468 13.9092 31.0468 13.2499C28.7638 13.2499 26.5137 13.2499 24.2417 13.2499C24.2417 13.9246 24.2417 14.5729 24.2417 15.2498C26.5115 15.2498 28.7616 15.2498 31.0468 15.2498Z" fill="#E9E9E9"/>
<path d="M10.603 25.928C10.603 24.4446 10.603 23.0007 10.603 21.5348C10.7413 21.5238 10.8555 21.5084 10.9718 21.5084C12.4206 21.5062 13.8717 21.504 15.3205 21.5084C16.17 21.5106 16.7737 21.9501 17.0371 22.7523C17.2435 23.3787 17.2588 24.0182 17.0832 24.6533C16.8791 25.394 16.3434 25.8973 15.5729 25.9148C13.9331 25.9566 12.2889 25.928 10.603 25.928Z" fill="#E9E9E9"/>
<path d="M10.6006 18.9024C10.6006 17.6519 10.6006 16.4585 10.6006 15.208C11.0045 15.208 11.3887 15.208 11.7706 15.208C12.9077 15.208 14.0426 15.2058 15.1798 15.208C15.959 15.2102 16.4508 15.5574 16.5452 16.3332C16.6132 16.8849 16.5605 17.4673 16.4683 18.0211C16.3849 18.5156 16.0249 18.8804 15.509 18.8914C13.8846 18.9222 12.258 18.9024 10.6006 18.9024Z" fill="#E9E9E9"/>
<path d="M30.3831 21.4823C28.5699 21.4823 26.7808 21.4823 24.9917 21.4823C24.9917 20.1549 26.2956 18.9571 27.773 18.922C29.3206 18.8846 30.3085 19.834 30.3831 21.4823Z" fill="#E9E9E9"/>
</svg>
