<svg width="40" height="41" viewBox="0 0 40 41" fill="none" xmlns="http://www.w3.org/2000/svg">
<path d="M20 0.922852C31.0364 0.920667 39.9935 9.86829 40 20.8999C40.0065 31.9599 31.0452 40.9294 19.9913 40.9228C8.97883 40.9185 0 31.9337 0 20.9174C0 9.90325 8.97883 0.925036 20 0.922852ZM20.408 38.035C20.899 38.0655 21.7892 37.9454 22.6773 37.8165C23.9166 37.6374 25.108 37.2748 26.2819 36.8466C26.6092 36.7265 26.6943 36.5495 26.6092 36.1978C26.3976 35.3262 26.247 34.4415 26.0463 33.5677C25.3153 30.3827 24.3618 27.2677 23.2271 24.2028C23.0613 23.7528 22.854 23.7594 22.4875 23.9036C20.8117 24.5633 19.1643 25.282 17.6304 26.2344C14.4447 28.2114 11.739 30.6711 9.78835 33.9194C9.53306 34.3454 9.59415 34.5201 9.95636 34.7779C12.9675 36.9056 16.3059 38.0088 20.408 38.035ZM2.90639 21.2691C2.89766 21.2691 2.89112 21.2713 2.88239 21.2713C2.96094 22.0642 2.99367 22.8681 3.12895 23.6524C3.63954 26.6145 4.80035 29.2927 6.69649 31.641C7.27253 32.3531 7.25507 32.3575 7.76784 31.6213C9.37595 29.3123 11.2197 27.2218 13.4082 25.4371C15.8128 23.4776 18.4573 21.9659 21.4205 21.0375C21.7827 20.9239 21.8656 20.806 21.6976 20.4696C21.355 19.7815 21.0277 19.089 20.7091 18.3899C20.5739 18.0907 20.4058 18.0273 20.0785 18.1191C16.6485 19.0737 13.1639 19.7378 9.61597 20.0873C7.62819 20.2839 5.63823 20.3735 3.64608 20.4565C2.82348 20.4914 2.91512 20.3603 2.90857 21.221C2.90639 21.2341 2.90639 21.2516 2.90639 21.2691ZM4.50578 17.4506C4.83744 17.4812 5.28475 17.3785 5.72987 17.3676C7.64346 17.3283 9.5396 17.1011 11.4357 16.8586C13.8774 16.5462 16.2841 16.0678 18.6712 15.4693C19.0247 15.3797 19.0268 15.2661 18.8719 15.004C18.3635 14.1433 17.8791 13.2673 17.3533 12.4176C16.0113 10.2484 14.6171 8.11416 13.1464 6.03016C12.8628 5.62604 12.6576 5.51026 12.1689 5.77458C10.2247 6.82095 8.50098 8.12726 7.07179 9.81805C5.43312 11.7535 4.21121 13.9096 3.55226 16.3715C3.25769 17.4528 3.26205 17.4528 4.50578 17.4506ZM19.6138 3.89156C18.8086 3.83039 17.6413 4.01171 16.4783 4.21923C16.1641 4.27603 15.9808 4.34812 16.2688 4.70855C16.7052 5.25467 17.0958 5.83575 17.4907 6.41245C19.1578 8.84814 20.7441 11.3363 22.1471 13.9358C22.2933 14.2067 22.4133 14.3443 22.7929 14.187C25.8062 12.9506 28.5424 11.3144 30.7593 8.88309C31.3681 8.21464 31.3856 8.14692 30.6808 7.59862C27.5387 5.15856 23.9974 3.86535 19.6138 3.89156ZM29.0923 19.954C29.496 19.9278 29.8909 20.0502 30.2858 20.0458C32.4569 20.0261 34.5931 20.3472 36.7227 20.7077C37.0761 20.7667 37.0674 20.6269 37.0827 20.38C37.122 19.7924 37.0412 19.2069 36.954 18.639C36.5067 15.6899 35.444 12.9855 33.6024 10.6132C33.2468 10.1566 33.2075 10.1479 32.8584 10.6023C32.2256 11.4302 31.4445 12.1139 30.6502 12.7715C28.645 14.4251 26.4325 15.7445 24.0279 16.7363C23.7748 16.8412 23.7377 16.9416 23.849 17.1797C24.2461 18.0426 24.6367 18.9099 25.0033 19.7858C25.1364 20.1069 25.3306 20.1943 25.6579 20.1703C26.8012 20.0873 27.9468 20.0239 29.0923 19.954ZM29.4 22.6606C28.8174 22.6431 27.8246 22.7043 26.8361 22.8616C26.2775 22.949 26.2666 22.9468 26.4499 23.5126C26.8514 24.749 27.2682 25.9788 27.65 27.2196C28.3962 29.6531 29.0203 32.1172 29.4632 34.625C29.5331 35.0182 29.6967 35.0532 29.9913 34.8216C31.0648 33.9762 32.1012 33.1024 32.9893 32.0473C34.9509 29.7143 36.2339 27.0754 36.8056 24.0783C36.8754 23.7135 36.7925 23.6327 36.463 23.5431C34.2854 22.9511 32.0707 22.6606 29.4 22.6606Z" fill="#E9E9E9"/>
</svg>
