<svg width="40" height="41" viewBox="0 0 40 41" fill="none" xmlns="http://www.w3.org/2000/svg">
<path d="M29.7651 40.9204C23.2543 40.9204 16.7457 40.9204 10.2349 40.9204C9.82625 40.8549 9.41318 40.8134 9.00885 40.7216C4.4782 39.7031 1.57141 36.9602 0.327833 32.482C0.166102 31.8985 0.107092 31.2865 0 30.6877C0 24.1769 0 17.6683 0 11.1576C0.0655666 10.7489 0.107092 10.3358 0.198885 9.93147C1.21954 5.40082 3.96241 2.49622 8.44061 1.25264C9.02415 1.09091 9.63611 1.0319 10.2349 0.924805C16.7457 0.924805 23.2543 0.924805 29.7651 0.924805C30.1738 0.990371 30.5868 1.0319 30.9911 1.12369C35.5218 2.14216 38.4286 4.88503 39.6722 9.36323C39.8339 9.94677 39.8929 10.5587 40 11.1576C40 17.6683 40 24.1769 40 30.6877C39.9344 31.0964 39.8929 31.5094 39.8011 31.9138C38.7826 36.4444 36.0398 39.3512 31.5616 40.5948C30.9758 40.7543 30.3639 40.8134 29.7651 40.9204ZM19.9607 37.3755C22.8631 37.3755 25.7655 37.3777 28.6679 37.3733C29.5815 37.3733 30.4863 37.2815 31.354 36.9711C34.5339 35.839 36.4441 33.1027 36.4485 29.6408C36.455 23.836 36.466 18.029 36.4332 12.2241C36.4288 11.3412 36.3086 10.4167 36.0288 9.58178C34.9536 6.38213 32.1823 4.47633 28.7247 4.47196C22.9068 4.4654 17.0888 4.45447 11.2687 4.48726C10.3967 4.49163 9.48749 4.61183 8.66572 4.88721C5.48137 5.95376 3.55808 8.71412 3.54934 12.1454C3.53404 18.0027 3.53841 23.86 3.54934 29.7173C3.55371 32.3247 4.59622 34.4315 6.70746 35.9767C8.06688 36.9711 9.61862 37.3777 11.2906 37.3755C14.1821 37.3711 17.0714 37.3755 19.9607 37.3755Z" fill="#E9E9E9"/>
<path d="M30.3068 20.918C30.3134 26.5764 25.6516 31.236 19.9954 31.2294C14.3282 31.2229 9.67519 26.5611 9.69268 20.9071C9.71235 15.2487 14.3261 10.6328 19.9845 10.6153C25.6363 10.5978 30.3003 15.2508 30.3068 20.918ZM26.7509 20.9289C26.7619 17.2135 23.7349 14.1799 20.0063 14.1712C16.2887 14.1603 13.2595 17.1851 13.2486 20.9158C13.2376 24.6312 16.2625 27.6648 19.9932 27.6735C23.7086 27.6845 26.74 24.6575 26.7509 20.9289Z" fill="#E9E9E9"/>
<path d="M30.7968 7.62317C32.2283 7.66469 33.3845 8.858 33.343 10.248C33.2971 11.7145 32.0972 12.8488 30.6438 12.8007C29.2472 12.7527 28.0976 11.5484 28.137 10.1715C28.1763 8.72469 29.3696 7.58164 30.7968 7.62317Z" fill="#E9E9E9"/>
</svg>
