<svg width="40" height="41" viewBox="0 0 40 41" fill="none" xmlns="http://www.w3.org/2000/svg">
<path d="M37.3038 40.9229C25.769 40.9229 14.232 40.9229 2.69719 40.9229C2.53445 40.8855 2.37171 40.8503 2.21117 40.8085C0.880657 40.4655 0.00317662 39.3377 0.000977422 37.9658C-0.00122178 36.02 0.000977422 34.0742 0.000977422 32.1285C0.000977422 22.7339 0.000977422 13.3393 0.00317662 3.94251C0.00317662 3.70286 0.018571 3.45662 0.0647542 3.22137C0.311064 1.91321 1.47664 0.926038 2.93251 0.926038C14.3112 0.919442 25.6876 0.921641 37.0663 0.926038C37.2554 0.926038 37.4467 0.948024 37.6293 0.987598C39.1203 1.30859 40 2.40349 40 3.92272C40 15.2367 40 26.5528 39.9978 37.8668C39.9978 38.0295 39.9846 38.1922 39.9648 38.3549C39.8241 39.5861 38.8938 40.5909 37.6732 40.8349C37.5523 40.8591 37.4291 40.8921 37.3038 40.9229ZM21.2914 18.5346C21.2848 18.4159 21.2782 18.3477 21.2782 18.2817C21.2782 17.5606 21.2716 16.8395 21.2804 16.1205C21.2826 15.9358 21.2298 15.8655 21.0363 15.8677C19.2857 15.8721 17.5374 15.8721 15.7868 15.8677C15.5955 15.8677 15.5405 15.9358 15.5405 16.1205C15.5449 22.3381 15.5449 28.5558 15.5405 34.7734C15.5405 34.9669 15.6043 35.013 15.789 35.0108C17.599 35.0042 19.4067 35.0086 21.2166 35.0064C21.5421 35.0064 21.5135 35.046 21.5135 34.714C21.5267 31.3612 21.5355 28.0083 21.5531 24.6555C21.5575 23.9871 21.6807 23.3319 21.9094 22.7031C22.2459 21.7775 22.8485 21.1157 23.8183 20.8387C24.3813 20.6782 24.9531 20.6276 25.5403 20.6914C26.5497 20.8035 27.2754 21.296 27.6889 22.226C28.0078 22.9472 28.1177 23.7211 28.1199 24.4972C28.1353 27.916 28.1287 31.337 28.1265 34.758C28.1265 34.9515 28.1727 35.0152 28.3772 35.013C30.218 35.0042 32.0609 35.0086 33.9016 35.0086C33.9764 35.0086 34.0512 35.0086 34.1391 35.0086C34.1391 34.9009 34.1391 34.8284 34.1391 34.758C34.1391 31.3568 34.1413 27.9577 34.1369 24.5565C34.1369 24.0662 34.1127 23.576 34.0995 23.0857C34.0776 22.2106 33.9742 21.3444 33.7807 20.4913C33.4816 19.1722 32.9846 17.9585 31.9597 17.0131C31.4473 16.5405 30.8711 16.1843 30.2224 15.9424C29.1008 15.5225 27.9374 15.4016 26.7476 15.4324C25.6282 15.4609 24.5814 15.7248 23.6072 16.2678C22.8924 16.6658 22.2679 17.178 21.7774 17.8376C21.6191 18.0465 21.4762 18.2685 21.2914 18.5346ZM5.90583 34.9954C6.00039 34.9998 6.07077 35.0064 6.14114 35.0064C7.96867 35.0064 9.79841 35.0042 11.6259 35.0108C11.8261 35.0108 11.8788 34.9559 11.8788 34.758C11.8744 28.5536 11.8745 22.3491 11.8745 16.1447C11.8745 15.8743 11.8679 15.8699 11.5996 15.8699C9.79181 15.8699 7.98187 15.8699 6.17413 15.8699C5.90802 15.8699 5.90802 15.8699 5.90802 16.1403C5.90802 22.3447 5.90802 28.5492 5.90802 34.7536C5.90583 34.8284 5.90583 34.9031 5.90583 34.9954ZM5.433 9.85013C5.4154 11.7717 6.94165 13.3415 8.88794 13.3283C10.8826 13.3151 12.3693 11.7981 12.3715 9.84354C12.3737 7.91317 10.8034 6.40274 8.90333 6.38295C7.01202 6.36536 5.39121 7.97253 5.433 9.85013Z" fill="#E9E9E9"/>
</svg>
